<?xml version="1.0" encoding="UTF-8"?>
<svg version="1.1" xmlns="http://www.w3.org/2000/svg" width="1024" height="1024">
<path d="M0 0 C337.92 0 675.84 0 1024 0 C1024 337.92 1024 675.84 1024 1024 C686.08 1024 348.16 1024 0 1024 C0 686.08 0 348.16 0 0 Z " fill="#FDFDFD" transform="translate(0,0)"/>
<path d="M0 0 C0.78117187 -0.02771484 1.56234375 -0.05542969 2.3671875 -0.08398438 C6.71630324 -0.06568002 9.28749615 0.43951567 12.5 3.48046875 C16.49717136 7.82392283 16.14185608 12.66146124 16.11352539 18.30175781 C16.11364593 19.07539043 16.11376646 19.84902306 16.11389065 20.64609909 C16.11314571 23.14430389 16.10553655 25.64243359 16.09765625 28.140625 C16.09618553 29.68538375 16.09516562 31.230143 16.09460449 32.77490234 C16.08936663 38.49577584 16.0754054 44.21663866 16.0625 49.9375 C16.041875 62.725 16.02125 75.5125 16 88.6875 C47.02 88.6875 78.04 88.6875 110 88.6875 C109.88136007 63.33278946 109.88136007 63.33278946 109.72973633 37.97827148 C109.71618652 33.05871582 109.71618652 33.05871582 109.71366882 30.75086975 C109.70908184 29.14948522 109.69857169 27.54811063 109.68327332 25.9467926 C109.66118637 23.5117918 109.65828617 21.07742054 109.65942383 18.64233398 C109.6486295 17.93678847 109.63783518 17.23124296 109.62671375 16.50431728 C109.66190403 10.84514631 110.90065114 6.14343683 114.6328125 1.77734375 C118.3240851 0.07789646 121.86003773 0.21432586 125.875 0.25 C127.06029297 0.2200293 127.06029297 0.2200293 128.26953125 0.18945312 C133.61247066 0.19389817 136.87140747 0.99449292 141 4.6875 C143.2282052 8.87769523 143.27332316 12.86905212 143.22705078 17.50708008 C143.22734283 18.27834229 143.22763489 19.04960449 143.22793579 19.84423828 C143.22654752 22.38195219 143.21101015 24.91936891 143.1953125 27.45703125 C143.19158058 29.22108296 143.18873445 30.98513675 143.18673706 32.74919128 C143.1791147 37.38359335 143.15947821 42.01786931 143.1373291 46.65222168 C143.11684057 51.38466689 143.10772891 56.11713256 143.09765625 60.84960938 C143.076231 70.12896154 143.04211192 79.40822027 143 88.6875 C143.74048584 88.67702637 144.48097168 88.66655273 145.24389648 88.65576172 C148.64172895 88.61384919 152.03950675 88.58806255 155.4375 88.5625 C156.60216797 88.54574219 157.76683594 88.52898437 158.96679688 88.51171875 C168.10086138 88.46025923 175.77600247 89.3265898 184.0625 93.3125 C185.00222656 93.75851562 185.94195313 94.20453125 186.91015625 94.6640625 C187.59980469 95.00179687 188.28945313 95.33953125 189 95.6875 C189 96.3475 189 97.0075 189 97.6875 C189.72703125 97.92726563 190.4540625 98.16703125 191.203125 98.4140625 C194.39858166 99.86897712 196.28586295 101.5735562 198.75 104.0625 C199.52859375 104.83335937 200.3071875 105.60421875 201.109375 106.3984375 C202.94259986 108.61800313 203.61537643 109.87974793 204 112.6875 C204.66 112.6875 205.32 112.6875 206 112.6875 C206.80157758 114.49563875 207.59069175 116.30930373 208.375 118.125 C208.81585937 119.13433594 209.25671875 120.14367187 209.7109375 121.18359375 C213.45447062 131.35919741 213.29128929 141.22069074 213.2746582 151.90014648 C213.27901015 153.7472962 213.28419491 155.5944441 213.29014587 157.44158936 C213.30349425 162.43952281 213.30411925 167.43738045 213.30158257 172.43532825 C213.30051017 176.61516552 213.30540305 180.79498762 213.310188 184.97482163 C213.3212685 194.83877618 213.3217286 204.70269264 213.31567383 214.56665039 C213.30963275 224.72717519 213.32195183 234.88756156 213.3432439 245.04806274 C213.3608809 253.78719063 213.36685799 262.52627452 213.36360615 271.26541954 C213.36179672 276.47807048 213.36439568 281.69062262 213.37832069 286.90325737 C213.39092881 291.80597468 213.38892673 296.70847665 213.37590981 301.6111908 C213.37355108 303.40500017 213.37625333 305.19882484 213.38453293 306.99261665 C213.46116266 324.892389 209.6488204 339.50618566 196.89453125 352.89453125 C191.8038691 357.71229192 185.42828976 360.97503382 179 363.6875 C178.42006287 363.93971628 177.84012573 364.19193256 177.24261475 364.45179176 C168.02092405 367.83759292 158.23670576 367.1075608 148.5625 367.07568359 C146.48860397 367.07975303 144.4147101 367.08509699 142.34082031 367.09161377 C136.72929532 367.10524884 131.11793646 367.10000442 125.50640869 367.09047651 C119.62275762 367.08286018 113.7391204 367.089931 107.85546875 367.09463501 C97.97653663 367.10008681 88.09767188 367.09291603 78.21875 367.07861328 C66.8113617 367.06228792 55.40413428 367.06757683 43.99674988 367.0840925 C34.18754198 367.09772374 24.3783824 367.099619 14.56916809 367.09177649 C8.71714645 367.087109 2.86520033 367.08644972 -2.98681641 367.09638596 C-8.48953755 367.10507715 -13.99205206 367.09899429 -19.49475098 367.08170319 C-21.50947731 367.07774985 -23.52422115 367.07885253 -25.53894043 367.08549118 C-44.93436399 367.14348902 -44.93436399 367.14348902 -53 363.6875 C-53.928125 363.33429688 -54.85625 362.98109375 -55.8125 362.6171875 C-69.82834487 355.85954801 -79.43988239 344.01368953 -84.78277874 329.57161617 C-87.58534079 320.69737147 -87.41615677 311.931985 -87.37231445 302.73852539 C-87.37474645 300.94358612 -87.37846972 299.1486482 -87.38337708 297.35371399 C-87.39273451 292.50653357 -87.38340374 287.65955691 -87.37004495 282.81239247 C-87.3586726 277.72245737 -87.36284246 272.63253145 -87.36479187 267.54258728 C-87.3656731 258.99621277 -87.35463088 250.44991783 -87.33618164 241.90356445 C-87.31502347 232.0463908 -87.31150378 222.1893337 -87.3177436 212.33214194 C-87.3234543 202.82114324 -87.31777108 193.31018526 -87.30657005 183.79919243 C-87.30194594 179.7648181 -87.3010407 175.73046885 -87.3031559 171.69609261 C-87.30505076 166.93782394 -87.2968435 162.17967252 -87.2810955 157.42143059 C-87.27688211 155.68329224 -87.27598205 153.94514193 -87.27878571 152.20700073 C-87.30410347 133.69131091 -85.315424 117.79217475 -72 103.6875 C-65.96125142 98.02445505 -59.90741283 93.31875979 -52 90.6875 C-50.64406738 90.17304321 -50.64406738 90.17304321 -49.26074219 89.64819336 C-43.20921229 87.92858588 -36.79117207 88.48075064 -30.5625 88.5625 C-29.25861328 88.57152344 -27.95472656 88.58054687 -26.61132812 88.58984375 C-23.40736168 88.61331603 -20.20377736 88.64615273 -17 88.6875 C-17.00444122 87.72141312 -17.00888245 86.75532623 -17.01345825 85.75996399 C-17.05401458 76.65224298 -17.08398934 67.54454031 -17.10362434 58.43674946 C-17.11405826 53.75442552 -17.12821035 49.07217453 -17.15087891 44.38989258 C-17.17262119 39.87061535 -17.18457158 35.35140825 -17.18975449 30.83208275 C-17.19344774 29.10852136 -17.20065974 27.38496377 -17.21146011 25.66143227 C-17.22599345 23.24596508 -17.22797717 20.83078713 -17.22705078 18.4152832 C-17.23424133 17.70390198 -17.24143188 16.99252075 -17.24884033 16.25958252 C-17.22499201 10.50702742 -16.35274543 7.14953736 -12.4375 2.91796875 C-8.54356685 -0.09344982 -4.77406112 -0.09059687 0 0 Z " fill="#FDFCFD" transform="translate(449,309.3125)"/>
<path d="M0 0 C0.78117187 -0.02771484 1.56234375 -0.05542969 2.3671875 -0.08398438 C6.71630324 -0.06568002 9.28749615 0.43951567 12.5 3.48046875 C16.49717136 7.82392283 16.14185608 12.66146124 16.11352539 18.30175781 C16.11364593 19.07539043 16.11376646 19.84902306 16.11389065 20.64609909 C16.11314571 23.14430389 16.10553655 25.64243359 16.09765625 28.140625 C16.09618553 29.68538375 16.09516562 31.230143 16.09460449 32.77490234 C16.08936663 38.49577584 16.0754054 44.21663866 16.0625 49.9375 C16.041875 62.725 16.02125 75.5125 16 88.6875 C47.02 88.6875 78.04 88.6875 110 88.6875 C109.88136007 63.33278946 109.88136007 63.33278946 109.72973633 37.97827148 C109.71618652 33.05871582 109.71618652 33.05871582 109.71366882 30.75086975 C109.70908184 29.14948522 109.69857169 27.54811063 109.68327332 25.9467926 C109.66118637 23.5117918 109.65828617 21.07742054 109.65942383 18.64233398 C109.6486295 17.93678847 109.63783518 17.23124296 109.62671375 16.50431728 C109.66190403 10.84514631 110.90065114 6.14343683 114.6328125 1.77734375 C118.3240851 0.07789646 121.86003773 0.21432586 125.875 0.25 C127.06029297 0.2200293 127.06029297 0.2200293 128.26953125 0.18945312 C133.61247066 0.19389817 136.87140747 0.99449292 141 4.6875 C143.2282052 8.87769523 143.27332316 12.86905212 143.22705078 17.50708008 C143.22734283 18.27834229 143.22763489 19.04960449 143.22793579 19.84423828 C143.22654752 22.38195219 143.21101015 24.91936891 143.1953125 27.45703125 C143.19158058 29.22108296 143.18873445 30.98513675 143.18673706 32.74919128 C143.1791147 37.38359335 143.15947821 42.01786931 143.1373291 46.65222168 C143.11684057 51.38466689 143.10772891 56.11713256 143.09765625 60.84960938 C143.076231 70.12896154 143.04211192 79.40822027 143 88.6875 C143.74048584 88.67702637 144.48097168 88.66655273 145.24389648 88.65576172 C148.64172895 88.61384919 152.03950675 88.58806255 155.4375 88.5625 C156.60216797 88.54574219 157.76683594 88.52898437 158.96679688 88.51171875 C168.10086138 88.46025923 175.77600247 89.3265898 184.0625 93.3125 C185.00222656 93.75851562 185.94195313 94.20453125 186.91015625 94.6640625 C187.59980469 95.00179687 188.28945313 95.33953125 189 95.6875 C189 96.3475 189 97.0075 189 97.6875 C189.72703125 97.92726563 190.4540625 98.16703125 191.203125 98.4140625 C194.39858166 99.86897712 196.28586295 101.5735562 198.75 104.0625 C199.52859375 104.83335937 200.3071875 105.60421875 201.109375 106.3984375 C202.94259986 108.61800313 203.61537643 109.87974793 204 112.6875 C204.66 112.6875 205.32 112.6875 206 112.6875 C206.80157758 114.49563875 207.59069175 116.30930373 208.375 118.125 C208.81585937 119.13433594 209.25671875 120.14367187 209.7109375 121.18359375 C213.45447062 131.35919741 213.29128929 141.22069074 213.2746582 151.90014648 C213.27901015 153.7472962 213.28419491 155.5944441 213.29014587 157.44158936 C213.30349425 162.43952281 213.30411925 167.43738045 213.30158257 172.43532825 C213.30051017 176.61516552 213.30540305 180.79498762 213.310188 184.97482163 C213.3212685 194.83877618 213.3217286 204.70269264 213.31567383 214.56665039 C213.30963275 224.72717519 213.32195183 234.88756156 213.3432439 245.04806274 C213.3608809 253.78719063 213.36685799 262.52627452 213.36360615 271.26541954 C213.36179672 276.47807048 213.36439568 281.69062262 213.37832069 286.90325737 C213.39092881 291.80597468 213.38892673 296.70847665 213.37590981 301.6111908 C213.37355108 303.40500017 213.37625333 305.19882484 213.38453293 306.99261665 C213.46116266 324.892389 209.6488204 339.50618566 196.89453125 352.89453125 C191.8038691 357.71229192 185.42828976 360.97503382 179 363.6875 C178.42006287 363.93971628 177.84012573 364.19193256 177.24261475 364.45179176 C168.02092405 367.83759292 158.23670576 367.1075608 148.5625 367.07568359 C146.48860397 367.07975303 144.4147101 367.08509699 142.34082031 367.09161377 C136.72929532 367.10524884 131.11793646 367.10000442 125.50640869 367.09047651 C119.62275762 367.08286018 113.7391204 367.089931 107.85546875 367.09463501 C97.97653663 367.10008681 88.09767188 367.09291603 78.21875 367.07861328 C66.8113617 367.06228792 55.40413428 367.06757683 43.99674988 367.0840925 C34.18754198 367.09772374 24.3783824 367.099619 14.56916809 367.09177649 C8.71714645 367.087109 2.86520033 367.08644972 -2.98681641 367.09638596 C-8.48953755 367.10507715 -13.99205206 367.09899429 -19.49475098 367.08170319 C-21.50947731 367.07774985 -23.52422115 367.07885253 -25.53894043 367.08549118 C-44.93436399 367.14348902 -44.93436399 367.14348902 -53 363.6875 C-53.928125 363.33429688 -54.85625 362.98109375 -55.8125 362.6171875 C-69.82834487 355.85954801 -79.43988239 344.01368953 -84.78277874 329.57161617 C-87.58534079 320.69737147 -87.41615677 311.931985 -87.37231445 302.73852539 C-87.37474645 300.94358612 -87.37846972 299.1486482 -87.38337708 297.35371399 C-87.39273451 292.50653357 -87.38340374 287.65955691 -87.37004495 282.81239247 C-87.3586726 277.72245737 -87.36284246 272.63253145 -87.36479187 267.54258728 C-87.3656731 258.99621277 -87.35463088 250.44991783 -87.33618164 241.90356445 C-87.31502347 232.0463908 -87.31150378 222.1893337 -87.3177436 212.33214194 C-87.3234543 202.82114324 -87.31777108 193.31018526 -87.30657005 183.79919243 C-87.30194594 179.7648181 -87.3010407 175.73046885 -87.3031559 171.69609261 C-87.30505076 166.93782394 -87.2968435 162.17967252 -87.2810955 157.42143059 C-87.27688211 155.68329224 -87.27598205 153.94514193 -87.27878571 152.20700073 C-87.30410347 133.69131091 -85.315424 117.79217475 -72 103.6875 C-65.96125142 98.02445505 -59.90741283 93.31875979 -52 90.6875 C-50.64406738 90.17304321 -50.64406738 90.17304321 -49.26074219 89.64819336 C-43.20921229 87.92858588 -36.79117207 88.48075064 -30.5625 88.5625 C-29.25861328 88.57152344 -27.95472656 88.58054687 -26.61132812 88.58984375 C-23.40736168 88.61331603 -20.20377736 88.64615273 -17 88.6875 C-17.00444122 87.72141312 -17.00888245 86.75532623 -17.01345825 85.75996399 C-17.05401458 76.65224298 -17.08398934 67.54454031 -17.10362434 58.43674946 C-17.11405826 53.75442552 -17.12821035 49.07217453 -17.15087891 44.38989258 C-17.17262119 39.87061535 -17.18457158 35.35140825 -17.18975449 30.83208275 C-17.19344774 29.10852136 -17.20065974 27.38496377 -17.21146011 25.66143227 C-17.22599345 23.24596508 -17.22797717 20.83078713 -17.22705078 18.4152832 C-17.23424133 17.70390198 -17.24143188 16.99252075 -17.24884033 16.25958252 C-17.22499201 10.50702742 -16.35274543 7.14953736 -12.4375 2.91796875 C-8.54356685 -0.09344982 -4.77406112 -0.09059687 0 0 Z M-52 116.6875 C-52 117.3475 -52 118.0075 -52 118.6875 C-52.5775 118.873125 -53.155 119.05875 -53.75 119.25 C-58.99498051 122.60095977 -61.27270525 129.944121 -63 135.6875 C-63.27298634 138.40395316 -63.41940877 140.88509217 -63.40113831 143.59210205 C-63.40793498 144.34592785 -63.41473164 145.09975364 -63.42173427 145.87642264 C-63.44059188 148.38032393 -63.43827695 150.88373127 -63.43579102 153.38769531 C-63.44477577 155.19204837 -63.45498566 156.99639567 -63.46632385 158.80073547 C-63.49275645 163.6873063 -63.49985451 168.57371939 -63.50177121 173.4603548 C-63.50390784 176.5178954 -63.51032049 179.57539625 -63.51826286 182.63292694 C-63.54599507 193.31276482 -63.55827117 203.99249059 -63.5559082 214.67236328 C-63.55410694 224.6063309 -63.58574775 234.53980922 -63.63313919 244.47365308 C-63.67244931 253.02002664 -63.68845638 261.56624083 -63.68654197 270.11270404 C-63.6857794 275.20931645 -63.69419996 280.30549384 -63.72607613 285.40201569 C-63.75526158 290.19904495 -63.75526167 294.99522757 -63.73352623 299.79228783 C-63.73040608 301.54495426 -63.73737377 303.29767474 -63.7556076 305.0502491 C-63.86670466 316.47564785 -63.01481738 325.98782829 -54.97550297 334.9425087 C-48.42804133 341.33778618 -41.07655474 343.14357075 -32.20204163 343.07518005 C-31.35217743 343.08056559 -30.50231323 343.08595113 -29.62669557 343.09149987 C-26.79793658 343.10573102 -23.96964875 343.09868775 -21.14086914 343.09155273 C-19.10505296 343.09725882 -17.06923997 343.104224 -15.03343201 343.11235046 C-9.51690219 343.13027021 -4.00053154 343.12911572 1.51601863 343.12340808 C6.12586724 343.12031465 10.73568535 343.12641038 15.34552962 343.13244683 C26.22248508 343.14648645 37.09936199 343.14493531 47.97631836 343.13354492 C59.18831532 343.12206297 70.4000731 343.13614208 81.61203855 343.1629414 C91.24794667 343.18510911 100.88377976 343.19173338 110.51971155 343.18586498 C116.27059919 343.18249695 122.0213335 343.1849005 127.77219963 343.20211601 C133.18054827 343.21760012 138.58854294 343.21361308 143.99687767 343.19481087 C145.97816145 343.19112914 147.95947154 343.19422127 149.94073105 343.20469666 C152.6525787 343.2179368 155.36325966 343.20633258 158.07505798 343.18870544 C158.8527027 343.19831045 159.63034741 343.20791546 160.43155712 343.21781152 C169.01588848 343.1035804 176.02972154 339.44152121 182.2734375 333.6953125 C185.10386742 330.40381708 186.54219157 326.73147704 188 322.6875 C188.33 322.0275 188.66 321.3675 189 320.6875 C189.10404075 318.26672828 189.14779881 315.87432193 189.14717102 313.45300293 C189.15084771 312.698809 189.1545244 311.94461507 189.1583125 311.16756678 C189.16937291 308.62667836 189.17319723 306.0858308 189.17700195 303.54492188 C189.18326505 301.72836171 189.18991171 299.91180283 189.19691467 298.09524536 C189.2143438 293.14857358 189.2248826 288.20191149 189.2331202 283.2552166 C189.23826851 280.16390184 189.24434445 277.0725901 189.25063133 273.98127747 C189.26969258 264.30741418 189.28391921 254.63355855 189.2922433 244.95968008 C189.30200664 233.79733042 189.32829867 222.63517955 189.36874419 211.47289991 C189.39893409 202.8443229 189.41371508 194.21580274 189.41702431 185.58717394 C189.41937239 180.43473024 189.42830064 175.28249867 189.45348549 170.13011169 C189.47682008 165.27752421 189.48097776 160.42528766 189.47072411 155.57265854 C189.47022987 153.79658209 189.476517 152.02048806 189.49028015 150.24446487 C189.56809039 139.60356224 189.30451039 130.17694607 182.6875 121.3125 C176.00129337 114.78178655 168.71145617 112.38419528 159.49360657 112.42007446 C158.63884411 112.41554335 157.78408164 112.41101224 156.90341729 112.40634382 C154.04013009 112.39368687 151.17703278 112.39532104 148.3137207 112.39697266 C146.26026668 112.39098811 144.2068149 112.38418274 142.15336609 112.37661743 C136.57464423 112.35894013 130.99598372 112.35426125 125.41723657 112.35298586 C121.93041041 112.35156439 118.44359985 112.3472948 114.95677757 112.34199142 C102.78798813 112.32348362 90.61924251 112.31532153 78.45043945 112.31689453 C67.11527153 112.3180953 55.78029422 112.29700741 44.44517452 112.2654072 C34.70825853 112.23923188 24.97140474 112.22852781 15.23445386 112.22980535 C9.42144046 112.23031472 3.60859635 112.22464535 -2.20438194 112.20344925 C-7.67505646 112.18404653 -13.14540061 112.18395652 -18.61608696 112.19848251 C-20.61952956 112.20056935 -22.62299294 112.19587724 -24.62639999 112.1837616 C-38.82667303 111.88944902 -38.82667303 111.88944902 -52 116.6875 Z " fill="#383838" transform="translate(449,309.3125)"/>
<path d="M0 0 C1.53933712 0.88524179 3.0632483 1.79844541 4.5625 2.75 C5.9546875 3.61625 5.9546875 3.61625 7.375 4.5 C12.93070818 10.2144427 15.21271239 16.62250624 15.875 24.4375 C15.72399963 32.45561986 11.92806809 39.38057518 6.44921875 45.0546875 C-0.35624684 51.16974353 -7.09001729 51.22568213 -15.92578125 50.98828125 C-19.4375 50.75 -19.4375 50.75 -22.4375 49.75 C-22.69917969 50.32105469 -22.96085938 50.89210938 -23.23046875 51.48046875 C-24.52611793 53.91662465 -26.02575941 55.91006662 -27.75 58.0625 C-30.02152527 60.92083596 -32.19114419 63.79774685 -34.25 66.8125 C-34.971875 67.781875 -35.69375 68.75125 -36.4375 69.75 C-37.0975 69.75 -37.7575 69.75 -38.4375 69.75 C-38.82615234 70.60464844 -38.82615234 70.60464844 -39.22265625 71.4765625 C-40.5504952 73.96145726 -42.08739692 75.94717171 -43.875 78.125 C-46.82861265 81.75649096 -49.74744686 85.40952606 -52.62744141 89.09936523 C-64.46745643 104.26497821 -64.46745643 104.26497821 -67.4375 105.75 C-77.1290674 106.85131448 -85.71887046 96.98685026 -92.9140625 91.41796875 C-93.8215625 90.72058594 -94.7290625 90.02320313 -95.6640625 89.3046875 C-96.48471191 88.67030762 -97.30536133 88.03592773 -98.15087891 87.38232422 C-100.21077173 85.91185193 -102.09201578 84.69589612 -104.4375 83.75 C-106.53611673 84.33465465 -106.53611673 84.33465465 -108.5 85.5625 C-112.6802004 87.91336126 -115.86049889 88.90379189 -120.6875 88.9375 C-121.60015625 88.95167969 -122.5128125 88.96585938 -123.453125 88.98046875 C-126.97063465 88.70882861 -130.07995464 87.80654101 -133.4375 86.75 C-135.06498003 88.51860838 -136.68953457 90.28975676 -138.3125 92.0625 C-138.77269531 92.56201172 -139.23289062 93.06152344 -139.70703125 93.57617188 C-141.82356608 95.89209043 -143.69276383 98.13289574 -145.4375 100.75 C-146.0975 100.75 -146.7575 100.75 -147.4375 100.75 C-147.8396875 101.6471875 -147.8396875 101.6471875 -148.25 102.5625 C-149.43058761 104.73726664 -150.70566512 106.01816512 -152.4375 107.75 C-152.9325 109.235 -152.9325 109.235 -153.4375 110.75 C-155.08389965 112.10827971 -156.75045807 113.44254251 -158.4375 114.75 C-158.7675 115.41 -159.0975 116.07 -159.4375 116.75 C-160.0975 116.75 -160.7575 116.75 -161.4375 116.75 C-162.47325246 121.17548779 -162.59335739 123.89883711 -161 128.1875 C-158.25683019 135.71851712 -159.09998548 141.70192009 -161.97265625 149.0625 C-165.51951877 155.56981043 -171.68249967 159.9597101 -178.4375 162.75 C-186.74505343 163.76445372 -195.46524947 163.85662881 -202.4375 158.75 C-208.34188294 153.34789964 -212.00939695 148.54253027 -212.73828125 140.3828125 C-212.76946552 131.04832007 -212.25286812 123.7546839 -205.4375 116.75 C-199.45725458 111.84020424 -194.81006926 109.48050256 -187.00317383 110.03320312 C-179.52324303 110.61930336 -179.52324303 110.61930336 -172.7265625 108.03515625 C-170.7177372 105.71270012 -169.07727416 103.34360319 -167.4375 100.75 C-166.31680966 99.41596723 -165.17120615 98.10240947 -164 96.8125 C-163.43539062 96.16539062 -162.87078125 95.51828125 -162.2890625 94.8515625 C-160.16987072 92.44623513 -158.02386638 90.06634539 -155.875 87.6875 C-155.12476563 86.84445312 -154.37453125 86.00140625 -153.6015625 85.1328125 C-152.25923268 83.65479591 -150.88394599 82.20519784 -149.4609375 80.8046875 C-147.86168323 79.17622311 -146.53499327 77.75159566 -145.4375 75.75 C-145.92815027 72.86553229 -145.92815027 72.86553229 -146.765625 70.9609375 C-148.71633716 64.54173352 -148.62408768 56.26878 -145.6875 50.1875 C-144.96949073 49.02135391 -144.22228396 47.87229594 -143.4375 46.75 C-142.90125 45.88375 -142.365 45.0175 -141.8125 44.125 C-136.27051973 38.58301973 -129.26210631 34.65311873 -121.375 34.4375 C-115.40678034 34.46137288 -110.75551037 36.16597761 -105.4375 38.75 C-105.4375 39.41 -105.4375 40.07 -105.4375 40.75 C-104.86 40.976875 -104.2825 41.20375 -103.6875 41.4375 C-98.73349764 44.32733471 -96.06023594 49.3703436 -94.4375 54.75 C-94.40033457 57.3542348 -94.4450465 59.96064973 -94.5625 62.5625 C-94.52922733 66.16842577 -94.43744968 69.3665826 -92.27246094 72.36181641 C-89.24332174 75.33150145 -85.75626191 77.57877702 -82.12353516 79.7421875 C-79.71774031 81.18022994 -77.43234727 82.78524877 -75.125 84.375 C-73.8991042 85.17172222 -72.67136799 85.96568081 -71.4375 86.75 C-66.34747572 80.42028499 -61.30604241 74.05445799 -56.2956543 67.66162109 C-55.41965677 66.54428218 -54.54188804 65.42832897 -53.66210938 64.31396484 C-52.50257531 62.83310854 -51.36767911 61.33305637 -50.234375 59.83203125 C-49.64140625 59.14496094 -49.0484375 58.45789063 -48.4375 57.75 C-47.7775 57.75 -47.1175 57.75 -46.4375 57.75 C-46.21578125 57.04746094 -45.9940625 56.34492187 -45.765625 55.62109375 C-43.86950259 51.52212325 -40.83322363 48.50855826 -37.71875 45.29882812 C-36.1407123 43.62616294 -36.1407123 43.62616294 -34.4375 40.75 C-34.93705139 37.56378545 -34.93705139 37.56378545 -36.4375 34.75 C-38.93649574 27.12148669 -39.60173481 19.44797312 -36.15625 11.96875 C-28.37441027 -0.21790467 -13.60691389 -6.66044133 0 0 Z " fill="#373737" transform="translate(611.4375,459.25)"/>
<path d="M0 0 C4.27361511 2.27926139 6.09104074 5.54010185 7.875 10 C7.875 12.625 7.875 12.625 6.875 15 C4.375 17.1875 4.375 17.1875 1.875 19 C1.545 19.66 1.215 20.32 0.875 21 C0.215 21 -0.445 21 -1.125 21 C-2.16075246 25.42548779 -2.28085739 28.14883711 -0.6875 32.4375 C2.05566981 39.96851712 1.21251452 45.95192009 -1.66015625 53.3125 C-5.20701877 59.81981043 -11.36999967 64.2097101 -18.125 67 C-26.43255343 68.01445372 -35.15274947 68.10662881 -42.125 63 C-48.02938294 57.59789964 -51.69689695 52.79253027 -52.42578125 44.6328125 C-52.45696552 35.29832007 -51.94036812 28.0046839 -45.125 21 C-39.14393656 16.08953264 -34.49761095 13.73234724 -26.69018555 14.2824707 C-19.14968788 14.88213441 -19.14968788 14.88213441 -12.34375 12.1796875 C-10.37137939 9.88111713 -8.7306816 7.56480874 -7.125 5 C-3.01985459 0 -3.01985459 0 0 0 Z " fill="#393939" transform="translate(451.125,555)"/>
<path d="M0 0 C1.53933712 0.88524179 3.0632483 1.79844541 4.5625 2.75 C5.490625 3.3275 6.41875 3.905 7.375 4.5 C12.93070818 10.2144427 15.21271239 16.62250624 15.875 24.4375 C15.72399963 32.45561986 11.92806809 39.38057518 6.44921875 45.0546875 C-0.35624684 51.16974353 -7.09001729 51.22568213 -15.92578125 50.98828125 C-19.4375 50.75 -19.4375 50.75 -22.4375 49.75 C-22.4375 50.41 -22.4375 51.07 -22.4375 51.75 C-23.0975 51.75 -23.7575 51.75 -24.4375 51.75 C-24.4375 50.76 -24.4375 49.77 -24.4375 48.75 C-25.4275 49.245 -25.4275 49.245 -26.4375 49.75 C-26.4375 48.1 -26.4375 46.45 -26.4375 44.75 C-27.55125 44.811875 -28.665 44.87375 -29.8125 44.9375 C-31.00875 44.875625 -32.205 44.81375 -33.4375 44.75 C-34.0975 43.76 -34.7575 42.77 -35.4375 41.75 C-35.1075 40.76 -34.7775 39.77 -34.4375 38.75 C-35.118125 37.5434375 -35.118125 37.5434375 -35.8125 36.3125 C-38.80872335 29.7438565 -39.48716113 21.5788344 -37.27734375 14.6171875 C-33.72938864 6.72917566 -28.05105109 2.53711922 -20.4375 -1.25 C-13.60701305 -3.52682898 -6.46004338 -3.16212334 0 0 Z " fill="#373737" transform="translate(611.4375,459.25)"/>
<path d="M0 0 C0.268125 0.556875 0.53625 1.11375 0.8125 1.6875 C1.98661429 4.06450659 1.98661429 4.06450659 3.5625 6.4375 C6.73581339 12.09427605 6.76670415 18.44622265 5.421875 24.6796875 C2.78791061 33.32387974 -2.18517887 38.12438958 -9.83203125 42.69140625 C-16.77347987 45.5587124 -25.91679696 45.22889941 -32.9375 42.5625 C-38.79359091 39.44590617 -43.63330812 34.24367455 -46.203125 28.14453125 C-48.24940096 20.06976582 -48.17686183 11.30950821 -44 4 C-42.35 4.33 -40.7 4.66 -39 5 C-38.67 5.99 -38.34 6.98 -38 8 C-37.34 7.34 -36.68 6.68 -36 6 C-35.71125 6.804375 -35.4225 7.60875 -35.125 8.4375 C-34.26737432 11.1326468 -34.26737432 11.1326468 -32 12 C-32.05800781 12.65226563 -32.11601562 13.30453125 -32.17578125 13.9765625 C-32.5354131 20.23460082 -32.5354131 20.23460082 -29.625 25.5625 C-26.58161733 28.38849819 -25.8496548 28.91830242 -21.75 29.3125 C-17.33953679 28.9449614 -15.39969369 27.76719254 -12 25 C-9.89172945 21.83759418 -9.66182535 20.49342531 -9.375 16.8125 C-9.30023438 15.91144531 -9.22546875 15.01039063 -9.1484375 14.08203125 C-9.09945312 13.39496094 -9.05046875 12.70789063 -9 12 C-8.34 12.33 -7.68 12.66 -7 13 C-7 10.69 -7 8.38 -7 6 C-6.34 5.67 -5.68 5.34 -5 5 C-4.34 5.33 -3.68 5.66 -3 6 C-3 5.34 -3 4.68 -3 4 C-2.34 3.67 -1.68 3.34 -1 3 C-0.67 2.01 -0.34 1.02 0 0 Z M-35 12 C-34 14 -34 14 -34 14 Z " fill="#363636" transform="translate(446,578)"/>
<path d="M0 0 C4.95 0.99 4.95 0.99 10 2 C10.495 3.98 10.495 3.98 11 6 C11.66 5.67 12.32 5.34 13 5 C13.33795184 8.21913449 13.21205583 9.67270787 11.42578125 12.4296875 C10.72839844 13.23664062 10.03101563 14.04359375 9.3125 14.875 C6.76606081 17.88565731 4.33544305 20.85912018 2.125 24.125 C1.073125 25.548125 1.073125 25.548125 0 27 C-0.66 27 -1.32 27 -2 27 C-2.25910156 27.56976562 -2.51820313 28.13953125 -2.78515625 28.7265625 C-4.1129952 31.21145726 -5.64989692 33.19717171 -7.4375 35.375 C-10.39111265 39.00649096 -13.30994686 42.65952606 -16.18994141 46.34936523 C-28.02995643 61.51497821 -28.02995643 61.51497821 -31 63 C-36.30773162 63.60315132 -38.84626506 62.25074909 -43 59 C-44.36886951 57.70317626 -45.7169291 56.38176866 -47 55 C-42.25 53.875 -42.25 53.875 -40 55 C-39.855625 54.278125 -39.71125 53.55625 -39.5625 52.8125 C-39.376875 51.884375 -39.19125 50.95625 -39 50 C-38.9175 49.13375 -38.835 48.2675 -38.75 47.375 C-38 45 -38 45 -35.71875 43.6953125 C-32.50105002 41.68887314 -30.94124851 39.58397939 -28.75 36.5 C-24.98025014 31.30556206 -21.04716882 26.31486997 -16.9453125 21.375 C-15.6997427 19.85430434 -14.50098413 18.29325982 -13.3671875 16.6875 C-12.91601562 16.130625 -12.46484375 15.57375 -12 15 C-11.34 15 -10.68 15 -10 15 C-9.75507812 14.28457031 -9.51015625 13.56914063 -9.2578125 12.83203125 C-7.84640324 9.65416879 -6.08718481 7.36353001 -3.875 4.6875 C-3.15054688 3.80449219 -2.42609375 2.92148437 -1.6796875 2.01171875 C-1.12539063 1.34785156 -0.57109375 0.68398438 0 0 Z " fill="#363636" transform="translate(575,502)"/>
<path d="M0 0 C6.2455336 0.32871229 11.16114496 3.23731889 16 7 C21.52204132 13.2349278 24.55050627 20.38144889 24.3203125 28.81640625 C23.41720861 34.97293156 20.97385336 41.09197236 16 45 C15.731875 44.030625 15.46375 43.06125 15.1875 42.0625 C14.795625 41.051875 14.40375 40.04125 14 39 C12.515 38.505 12.515 38.505 11 38 C10.67 35.69 10.34 33.38 10 31 C9.29875 31.763125 8.5975 32.52625 7.875 33.3125 C3.8537697 37.07147615 1.03914496 39.03577447 -4.5625 38.9375 C-9.62253822 37.55748958 -12.12259324 35.31611013 -15 31 C-15.52173913 22.7826087 -15.52173913 22.7826087 -13 19 C-12.34 19 -11.68 19 -11 19 C-11 18.34 -11 17.68 -11 17 C-10.34 16.67 -9.68 16.34 -9 16 C-8.34444881 13.47266765 -8.34444881 13.47266765 -8 11 C-8.99 10.67 -9.98 10.34 -11 10 C-10.34 9.34 -9.68 8.68 -9 8 C-11.475 7.01 -11.475 7.01 -14 6 C-13.67 5.34 -13.34 4.68 -13 4 C-6.375 3.75 -6.375 3.75 -3 6 C-3.33 7.32 -3.66 8.64 -4 10 C-1.36 10.33 1.28 10.66 4 11 C3.67 8.69 3.34 6.38 3 4 C2.01 3.67 1.02 3.34 0 3 C0 2.01 0 1.02 0 0 Z " fill="#393939" transform="translate(603,457)"/>
<path d="M0 0 C0.33 0 0.66 0 1 0 C1.33 2.31 1.66 4.62 2 7 C5.14737182 6.30058404 8.02588876 5.23921302 11 4 C11 4.66 11 5.32 11 6 C11.99 5.67 12.98 5.34 14 5 C16.5625 6.875 16.5625 6.875 19 9 C21.46334161 10.2316708 22.66581389 9.95802288 25.375 9.625 C26.53128906 9.48964844 26.53128906 9.48964844 27.7109375 9.3515625 C29.87735287 9.01883659 31.91766064 8.68799759 34 8 C34.33 7.34 34.66 6.68 35 6 C35.99 6 36.98 6 38 6 C37.67 7.32 37.34 8.64 37 10 C36.01 10 35.02 10 34 10 C34 11.32 34 12.64 34 14 C34.66 14 35.32 14 36 14 C36.33 13.34 36.66 12.68 37 12 C37.99 13.32 38.98 14.64 40 16 C39.505 16.495 39.505 16.495 39 17 C39.99 17.99 40.98 18.98 42 20 C34.46841307 25.37970495 28.15483418 26.84467941 19 26 C16.65366053 25.38066166 14.31639288 24.72333458 12 24 C10.37251997 25.76860838 8.74796543 27.53975676 7.125 29.3125 C6.66480469 29.81201172 6.20460938 30.31152344 5.73046875 30.82617188 C3.61393392 33.14209043 1.74473617 35.38289574 0 38 C-0.66 38 -1.32 38 -2 38 C-2.2475 38.598125 -2.495 39.19625 -2.75 39.8125 C-4.16370012 42.28647521 -5.65055383 43.43370255 -8 45 C-8.0928125 43.948125 -8.0928125 43.948125 -8.1875 42.875 C-9.30471238 38.92178696 -11.20187383 37.00286711 -14 34 C-14.66 33.67 -15.32 33.34 -16 33 C-14.62818803 29.97532189 -13.03464311 27.71113791 -10.8125 25.25 C-10.20019531 24.55648437 -9.58789062 23.86296875 -8.95703125 23.1484375 C-7.64830512 21.71171221 -6.31170745 20.29990815 -4.94921875 18.9140625 C-3.12638834 17.00721385 -1.45944306 15.19834347 0 13 C0 9.91666667 0 9.91666667 -1 7 C-0.7355646 4.65785793 -0.41755362 2.31974234 0 0 Z " fill="#383838" transform="translate(466,522)"/>
<path d="M0 0 C0.99386719 0.00902344 1.98773438 0.01804687 3.01171875 0.02734375 C4.15060547 0.04474609 4.15060547 0.04474609 5.3125 0.0625 C5.3125 0.3925 5.3125 0.7225 5.3125 1.0625 C2.0125 1.3925 -1.2875 1.7225 -4.6875 2.0625 C-4.6875 2.7225 -4.6875 3.3825 -4.6875 4.0625 C-5.3475 4.0625 -6.0075 4.0625 -6.6875 4.0625 C-6.6875 4.7225 -6.6875 5.3825 -6.6875 6.0625 C-6.0275 6.0625 -5.3675 6.0625 -4.6875 6.0625 C-4.6875 6.7225 -4.6875 7.3825 -4.6875 8.0625 C-5.6775 8.0625 -6.6675 8.0625 -7.6875 8.0625 C-7.6875 8.7225 -7.6875 9.3825 -7.6875 10.0625 C-8.6775 10.5575 -8.6775 10.5575 -9.6875 11.0625 C-8.3675 11.7225 -7.0475 12.3825 -5.6875 13.0625 C-6.6775 13.3925 -7.6675 13.7225 -8.6875 14.0625 C-8.3575 15.0525 -8.0275 16.0425 -7.6875 17.0625 C-6.6975 16.4025 -5.7075 15.7425 -4.6875 15.0625 C0.56620771 14.5668672 3.77620773 15.4071094 8.3125 18.0625 C8.3125 18.7225 8.3125 19.3825 8.3125 20.0625 C8.9725 20.0625 9.6325 20.0625 10.3125 20.0625 C11.53735812 22.51221624 11.47972808 24.20484461 11.5 26.9375 C11.51417969 27.80117188 11.52835937 28.66484375 11.54296875 29.5546875 C11.29456891 32.25761454 10.81261446 33.80986911 9.3125 36.0625 C4.91572395 38.4299948 1.30195922 39.80561095 -3.6875 39.0625 C-5.71881672 37.77738126 -7.72027992 36.44373963 -9.6875 35.0625 C-12.90271704 34.14386656 -15.29501405 34.0625 -18.6875 34.0625 C-19.0175 34.7225 -19.3475 35.3825 -19.6875 36.0625 C-20.6775 35.7325 -21.6675 35.4025 -22.6875 35.0625 C-23.0175 35.7225 -23.3475 36.3825 -23.6875 37.0625 C-25.16015625 35.98046875 -25.16015625 35.98046875 -26.6875 34.0625 C-27.81774777 26.04894148 -27.37414558 18.76473092 -22.6875 12.0625 C-22.15125 11.19625 -21.615 10.33 -21.0625 9.4375 C-15.22862527 3.60362527 -8.25805604 -0.0971536 0 0 Z " fill="#353535" transform="translate(490.6875,493.9375)"/>
<path d="M0 0 C3.10352458 1.60923497 5.21701424 3.00347267 7.375 5.75 C8.52619007 9.89428424 9.13918169 13.93041095 7.01953125 17.78125 C3.5732351 22.10767717 0.99508238 23.74137821 -4.375 24.4375 C-9.21270423 23.85363915 -10.5875382 22.4124618 -14 19 C-16.47591878 15.28612182 -16.53907468 12.30417439 -16 8 C-13.03878711 0.98660105 -7.3751817 -1.31338852 0 0 Z " fill="#F5F5F5" transform="translate(429,584)"/>
<path d="M0 0 C0.495 0.33 0.99 0.66 1.5 1 C1.5 1.66 1.5 2.32 1.5 3 C2.16 3 2.82 3 3.5 3 C5.96692274 6.70038411 6.30911579 10.70673256 5.5 15 C3.73819627 18.3197624 1.34634033 20.48774138 -1.875 22.4375 C-5.43512556 23.20038405 -7.97053727 22.88236568 -11.5 22 C-14.68251523 19.87832318 -16.37267139 18.19099292 -18.5 15 C-19.02173913 6.7826087 -19.02173913 6.7826087 -16.5 3 C-15.84 3 -15.18 3 -14.5 3 C-14.5 2.34 -14.5 1.68 -14.5 1 C-10.13338636 -1.91107576 -4.77017978 -1.90807191 0 0 Z " fill="#F7F7F7" transform="translate(606.5,473)"/>
<path d="M0 0 C3.4375 1.5 3.4375 1.5 6 3 C6 3.66 6 4.32 6 5 C6.66 5 7.32 5 8 5 C9.22485812 7.44971624 9.16722808 9.14234461 9.1875 11.875 C9.20167969 12.73867188 9.21585937 13.60234375 9.23046875 14.4921875 C8.98206891 17.19511454 8.50011446 18.74736911 7 21 C2.60322395 23.3674948 -1.01054078 24.74311095 -6 24 C-9.6578218 21.96006092 -11.66946174 20.49580738 -14 17 C-14.46021936 11.3853238 -14.15793998 7.84969354 -11 3 C-7.68129136 -0.55575926 -4.71103855 -0.48734882 0 0 Z " fill="#F7F7F7" transform="translate(493,509)"/>
<path d="M0 0 C0.33 0 0.66 0 1 0 C1.06058594 1.14339844 1.12117188 2.28679687 1.18359375 3.46484375 C1.26798428 4.95574305 1.35263302 6.44662775 1.4375 7.9375 C1.47681641 8.69224609 1.51613281 9.44699219 1.55664062 10.22460938 C1.44038024 13.91944187 1.44038024 13.91944187 3 17 C2.93553196 19.03074313 2.86732164 21.06193467 2.7421875 23.08984375 C2.82726562 23.72019531 2.91234375 24.35054688 3 25 C6.14736785 27.09824523 6.83764826 27.24918314 10.41796875 27.23046875 C11.32675781 27.22909912 12.23554688 27.22772949 13.171875 27.22631836 C14.16703125 27.2135083 15.1621875 27.20069824 16.1875 27.1875 C17.23035156 27.18177979 18.27320313 27.17605957 19.34765625 27.17016602 C29.10138704 27.08419563 38.84423708 26.71505032 48.5909729 26.36169434 C57.41624458 26.04822805 66.09643851 25.98103903 74.8984375 26.7421875 C79.26972732 27.10554408 83.61749809 27.09481374 88 27 C88 27.66 88 28.32 88 29 C89.65 29 91.3 29 93 29 C93 29.33 93 29.66 93 30 C61.98 30 30.96 30 -1 30 C-0.67 20.1 -0.34 10.2 0 0 Z " fill="#E3E3E3" transform="translate(466,368)"/>
<path d="M0 0 C1.16845948 3.50537845 1.11773589 6.62649778 1.08229065 10.27018738 C1.07906152 11.01595718 1.07583239 11.76172699 1.07250541 12.53009588 C1.06041477 15.03598465 1.04104514 17.54176469 1.02172852 20.04760742 C1.01158737 21.84112816 1.00189352 23.63465147 0.99261475 25.42817688 C0.96611727 30.3039122 0.93334109 35.17958774 0.89946485 40.05527663 C0.86513815 45.14818344 0.83654803 50.2411223 0.80735779 55.33406067 C0.75118855 64.98129823 0.68983612 74.62849564 0.62663645 84.27568942 C0.55494555 95.25738864 0.48901015 106.23912003 0.42356598 117.22085798 C0.2887962 139.81394707 0.1467733 162.40698593 0 185 C-0.33 185 -0.66 185 -1 185 C-1.33 124.28 -1.66 63.56 -2 1 C-1.34 0.67 -0.68 0.34 0 0 Z " fill="#D5D5D5" transform="translate(663,439)"/>
<path d="M0 0 C1.32 0.33 2.64 0.66 4 1 C4 1.66 4 2.32 4 3 C5.32 3.66 6.64 4.32 8 5 C7.67 5.66 7.34 6.32 7 7 C5.68 6.67 4.36 6.34 3 6 C3.061875 6.845625 3.12375 7.69125 3.1875 8.5625 C2.95984372 12.73619843 1.79792186 15.25432947 0 19 C-0.33 18.34 -0.66 17.68 -1 17 C-1.66 17 -2.32 17 -3 17 C-4.02196992 16.02246356 -5.01979625 15.0194119 -6 14 C-8.91765 12.0549 -10.62537285 11.54723683 -14 11 C-14 10.67 -14 10.34 -14 10 C-10.535 9.505 -10.535 9.505 -7 9 C-6.67 8.01 -6.34 7.02 -6 6 C-4.04783565 4.04783565 -2.46800047 3.15173355 0 2 C0 1.34 0 0.68 0 0 Z " fill="#3C3C3C" transform="translate(502,497)"/>
<path d="M0 0 C0 0.99 0 1.98 0 3 C1.65 3 3.3 3 5 3 C5 3.99 5 4.98 5 6 C4.34 6 3.68 6 3 6 C3 6.66 3 7.32 3 8 C3.66 8.33 4.32 8.66 5 9 C4.01 9.99 3.02 10.98 2 12 C-0.9375 11.25 -0.9375 11.25 -4 10 C-4.875 7.875 -4.875 7.875 -5 6 C-6.918125 5.814375 -6.918125 5.814375 -8.875 5.625 C-12.75 5.25 -12.75 5.25 -15 3 C-9.8531808 -0.16727335 -5.841744 -0.35050464 0 0 Z " fill="#353535" transform="translate(603,457)"/>
<path d="M0 0 C0.33 0 0.66 0 1 0 C1.66964286 7.76785714 1.66964286 7.76785714 -1.1875 11.375 C-5.09446815 15.02150361 -7.15329708 16.03297684 -12.5 15.9375 C-16.62568796 14.83240501 -18.27580892 13.21949855 -21 10 C-20.34 9.67 -19.68 9.34 -19 9 C-18.0925 9.33 -17.185 9.66 -16.25 10 C-11.00678718 11.61329625 -6.87833506 10.23009603 -2 8 C-0.03177114 6.03177114 -0.33751619 2.65191291 0 0 Z " fill="#E9E9E9" transform="translate(611,480)"/>
<path d="M0 0 C1.3921875 0.495 1.3921875 0.495 2.8125 1 C9.38245992 2.8866891 16.38961214 2.49151351 23 1 C21.69696706 3.60606588 20.68319019 3.91222019 18 5 C12.41998927 6.26818426 6.48021529 6.82673843 1 5 C1 5.66 1 6.32 1 7 C-0.65 7 -2.3 7 -4 7 C-3.43628586 3.73045798 -2.50037734 2.17424117 0 0 Z " fill="#ECECEC" transform="translate(478,545)"/>
<path d="M0 0 C0 3.51716303 -0.82445585 4.37121748 -3 7 C-2.01 7.66 -1.02 8.32 0 9 C-0.165 9.86625 -0.33 10.7325 -0.5 11.625 C-0.97218548 14.81225199 -1.07655118 17.78485027 -1 21 C-1.99 21 -2.98 21 -4 21 C-7.64948454 11.53608247 -7.64948454 11.53608247 -6 7 C-5.67 6.34 -5.34 5.68 -5 5 C-4.34 5 -3.68 5 -3 5 C-2.690625 4.360625 -2.38125 3.72125 -2.0625 3.0625 C-1 1 -1 1 0 0 Z " fill="#E9E9E9" transform="translate(455,571)"/>
<path d="M0 0 C2.64 0.33 5.28 0.66 8 1 C7.01 2.485 7.01 2.485 6 4 C3.38623047 4.34057617 3.38623047 4.34057617 0.1171875 4.29296875 C-1.04941406 4.28330078 -2.21601562 4.27363281 -3.41796875 4.26367188 C-4.64128906 4.23853516 -5.86460937 4.21339844 -7.125 4.1875 C-8.35605469 4.17396484 -9.58710937 4.16042969 -10.85546875 4.14648438 C-13.90407843 4.11103543 -16.951825 4.06162079 -20 4 C-20 3.01 -20 2.02 -20 1 C-13.4 1.33 -6.8 1.66 0 2 C0 1.34 0 0.68 0 0 Z " fill="#E1E1E1" transform="translate(612,394)"/>
<path d="M0 0 C0 0.33 0 0.66 0 1 C-3.3 1.33 -6.6 1.66 -10 2 C-10 2.66 -10 3.32 -10 4 C-10.66 4 -11.32 4 -12 4 C-12 4.66 -12 5.32 -12 6 C-11.34 6 -10.68 6 -10 6 C-10 6.66 -10 7.32 -10 8 C-10.99 8 -11.98 8 -13 8 C-13 8.66 -13 9.32 -13 10 C-16.36720387 8.60667426 -17.9859524 7.0210714 -20 4 C-13.21882953 0.2494267 -7.69479711 -0.51778074 0 0 Z " fill="#525252" transform="translate(496,494)"/>
<path d="M0 0 C0.99 0.33 1.98 0.66 3 1 C3.33 3.97 3.66 6.94 4 10 C3.2575 9.95875 2.515 9.9175 1.75 9.875 C-1.08758952 10.00398134 -2.58773938 10.57051222 -5 12 C-3.85814266 7.52040582 -2.56984833 3.85477249 0 0 Z " fill="#3F3F3F" transform="translate(370,422)"/>
<path d="M0 0 C1.5 1.375 1.5 1.375 3 3 C3 3.66 3 4.32 3 5 C-2.75 6.125 -2.75 6.125 -5 5 C-5 5.66 -5 6.32 -5 7 C-6.9375 6.6875 -6.9375 6.6875 -9 6 C-9.33 5.01 -9.66 4.02 -10 3 C-9.67 2.34 -9.34 1.68 -9 1 C-7.700625 1.020625 -6.40125 1.04125 -5.0625 1.0625 C-3.70834367 1.08399454 -2.35243917 1.07148199 -1 1 C-0.67 0.67 -0.34 0.34 0 0 Z " fill="#3F3F3F" transform="translate(437,568)"/>
<path d="M0 0 C1.258125 0.226875 2.51625 0.45375 3.8125 0.6875 C3.8125 1.0175 3.8125 1.3475 3.8125 1.6875 C6.4525 2.3475 9.0925 3.0075 11.8125 3.6875 C11.8125 4.0175 11.8125 4.3475 11.8125 4.6875 C9.39553128 4.74161124 6.97978213 4.78122278 4.5625 4.8125 C3.88058594 4.82925781 3.19867188 4.84601563 2.49609375 4.86328125 C-1.2483235 4.89963482 -4.01102727 4.76694349 -7.1875 2.6875 C-5.15110924 -0.49436057 -3.4972064 -0.45804119 0 0 Z " fill="#D7D7D7" transform="translate(444.1875,305.3125)"/>
<path d="M0 0 C0 0.99 0 1.98 0 3 C-7.26 3 -14.52 3 -22 3 C-22 2.67 -22 2.34 -22 2 C-7.40318907 -0.29612756 -7.40318907 -0.29612756 0 0 Z " fill="#DCDCDC" transform="translate(432,395)"/>
<path d="M0 0 C-2 2 -2 2 -5.625 3.6875 C-10.45144908 6.01232804 -14.13439256 9.34000998 -18 13 C-18 10 -18 10 -16.625 8.3125 C-15 7 -15 7 -13 7 C-12.773125 6.401875 -12.54625 5.80375 -12.3125 5.1875 C-9.3683984 0.280664 -5.41658877 -0.37790154 0 0 Z " fill="#E7E7E7" transform="translate(395,401)"/>
<path d="M0 0 C0.66 0.33 1.32 0.66 2 1 C2.26391027 6.3661755 2.26391027 6.3661755 2 9 C1.02149805 10.02104551 0.02019573 11.0206121 -1 12 C-1.5788755 14.67461922 -1.77561035 17.26244633 -2 20 C-2.33 20 -2.66 20 -3 20 C-3.08165496 17.79229195 -3.13948488 15.58369575 -3.1875 13.375 C-3.23970703 11.53035156 -3.23970703 11.53035156 -3.29296875 9.6484375 C-2.9787947 5.73592336 -1.96906533 3.35929782 0 0 Z " fill="#535353" transform="translate(467,508)"/>
<path d="M0 0 C0.99 1.32 1.98 2.64 3 4 C-1 10.57142857 -1 10.57142857 -5 12 C-5.66 11.34 -6.32 10.68 -7 10 C-6.57847656 9.52949219 -6.15695312 9.05898438 -5.72265625 8.57421875 C-5.17480469 7.95160156 -4.62695312 7.32898438 -4.0625 6.6875 C-3.51722656 6.07261719 -2.97195313 5.45773437 -2.41015625 4.82421875 C-0.79918441 2.94758042 -0.79918441 2.94758042 0 0 Z " fill="#404040" transform="translate(635,635)"/>
<path d="M0 0 C0.66 0.99 1.32 1.98 2 3 C1.05016642 4.50539661 0.08988109 6.00420347 -0.875 7.5 C-1.40867187 8.3353125 -1.94234375 9.170625 -2.4921875 10.03125 C-2.98976563 10.6809375 -3.48734375 11.330625 -4 12 C-4.66 12 -5.32 12 -6 12 C-6.66 12.66 -7.32 13.32 -8 14 C-8 9.2047363 -7.01007087 8.32445916 -4 4.75 C-3.2575 3.85796875 -2.515 2.9659375 -1.75 2.046875 C-1.1725 1.37140625 -0.595 0.6959375 0 0 Z " fill="#E4E4E4" transform="translate(587,512)"/>
<path d="M0 0 C2.97 0.495 2.97 0.495 6 1 C5.835 1.5775 5.67 2.155 5.5 2.75 C4.85537969 5.26664369 4.85537969 5.26664369 5 9 C4.01 9.495 4.01 9.495 3 10 C2.01 9.67 1.02 9.34 0 9 C-0.33 9.66 -0.66 10.32 -1 11 C-0.9278125 10.28972656 -0.855625 9.57945312 -0.78125 8.84765625 C-0.6884375 7.92855469 -0.595625 7.00945312 -0.5 6.0625 C-0.4071875 5.14597656 -0.314375 4.22945313 -0.21875 3.28515625 C-0.05708522 1.64507518 -0.05708522 1.64507518 0 0 Z " fill="#2E2E2E" transform="translate(504,502)"/>
<path d="M0 0 C2.31 0 4.62 0 7 0 C5.515 1.485 5.515 1.485 4 3 C4.99 4.485 4.99 4.485 6 6 C1.71 6 -2.58 6 -7 6 C-7 5.67 -7 5.34 -7 5 C-4.69 5 -2.38 5 0 5 C0 4.34 0 3.68 0 3 C-0.66 2.67 -1.32 2.34 -2 2 C-1.34 2 -0.68 2 0 2 C0 1.34 0 0.68 0 0 Z " fill="#D3D3D3" transform="translate(576,304)"/>
<path d="M0 0 C1.916588 -0.02712153 3.8332873 -0.04645097 5.75 -0.0625 C7.35101562 -0.07990234 7.35101562 -0.07990234 8.984375 -0.09765625 C11.53368501 -0.01510087 13.57933591 0.25382442 16 1 C16 1.66 16 2.32 16 3 C10.72 3 5.44 3 0 3 C0 2.01 0 1.02 0 0 Z " fill="#EBEBEB" transform="translate(600,649)"/>
<path d="M0 0 C-1.98 0.99 -1.98 0.99 -4 2 C-3.67 2.66 -3.34 3.32 -3 4 C-4.79133978 4.05391993 -6.58313899 4.09275571 -8.375 4.125 C-9.37273437 4.14820313 -10.37046875 4.17140625 -11.3984375 4.1953125 C-14 4 -14 4 -16 2 C-13.33333333 1.33333333 -10.66666667 0.66666667 -8 0 C-7.29875 -0.1959375 -6.5975 -0.391875 -5.875 -0.59375 C-3.62354471 -1.08156531 -2.17002493 -0.69750801 0 0 Z " fill="#2F2F2F" transform="translate(432,618)"/>
<path d="M0 0 C0.33 0 0.66 0 1 0 C1.66964286 7.76785714 1.66964286 7.76785714 -1.3125 11.4375 C-4 14 -4 14 -7 15 C-7.99 14.34 -8.98 13.68 -10 13 C-9.36191406 12.64808594 -8.72382812 12.29617188 -8.06640625 11.93359375 C-3.27462554 9.30216396 -3.27462554 9.30216396 -0.1796875 5.04296875 C0.13420476 2.93030207 0.13420476 2.93030207 0 0 Z " fill="#DADADA" transform="translate(611,480)"/>
<path d="M0 0 C0.99 0.33 1.98 0.66 3 1 C4.23076923 7.4 4.23076923 7.4 3.0625 10.4375 C2.711875 10.953125 2.36125 11.46875 2 12 C-0.15229884 8.77155174 -0.60309873 6.81025223 -1 3 C-0.67 2.01 -0.34 1.02 0 0 Z " fill="#2E2E2E" transform="translate(650,419)"/>
<path d="M0 0 C0.33 0.99 0.66 1.98 1 3 C1.66 2.01 2.32 1.02 3 0 C2.125 5.75 2.125 5.75 1 8 C0.01 7.67 -0.98 7.34 -2 7 C-2 6.67 -2 6.34 -2 6 C-2.66 6 -3.32 6 -4 6 C-4.33 5.01 -4.66 4.02 -5 3 C-2.25 0 -2.25 0 0 0 Z " fill="#434343" transform="translate(468,535)"/>
<path d="M0 0 C0.2475 0.5775 0.495 1.155 0.75 1.75 C2.16683317 4.3002997 3.87627537 6.01785701 6 8 C5.34 8.66 4.68 9.32 4 10 C1.54901444 9.60467975 -0.63904279 8.78698574 -3 8 C-3 7.34 -3 6.68 -3 6 C-2.34 5.67 -1.68 5.34 -1 5 C-0.34444881 2.47266765 -0.34444881 2.47266765 0 0 Z " fill="#474747" transform="translate(516,526)"/>
<path d="M0 0 C0.99 0.66 1.98 1.32 3 2 C2.67 4.31 2.34 6.62 2 9 C-0.475 8.01 -0.475 8.01 -3 7 C-3.33 7.66 -3.66 8.32 -4 9 C-4 7.68 -4 6.36 -4 5 C-3.01 5 -2.02 5 -1 5 C-1.66 4.34 -2.32 3.68 -3 3 C-2.01 2.67 -1.02 2.34 0 2 C0 1.34 0 0.68 0 0 Z " fill="#404040" transform="translate(573,520)"/>
<path d="M0 0 C0.680625 0.391875 1.36125 0.78375 2.0625 1.1875 C-0.87767338 2.71203435 -3.79222185 4.13907395 -6.9375 5.1875 C-7.9275 4.8575 -8.9175 4.5275 -9.9375 4.1875 C-9.9375 3.5275 -9.9375 2.8675 -9.9375 2.1875 C-3.66057692 -1.0125 -3.66057692 -1.0125 0 0 Z " fill="#454545" transform="translate(397.9375,401.8125)"/>
<path d="M0 0 C-1 3 -1 3 -2.71484375 4.203125 C-8.83649836 7.08643508 -13.38825293 7.26989714 -20 6 C-20 5.67 -20 5.34 -20 5 C-19.28714844 4.97421875 -18.57429688 4.9484375 -17.83984375 4.921875 C-11.54512001 4.54910536 -5.37383763 0 0 0 Z " fill="#C7C7C7" transform="translate(442,617)"/>
<path d="M0 0 C0.99 0 1.98 0 3 0 C4.6875 2.5 4.6875 2.5 6 5 C4.25 6.125 4.25 6.125 2 7 C-0.25 6.125 -0.25 6.125 -2 5 C-2 4.01 -2 3.02 -2 2 C-1.34 2 -0.68 2 0 2 C0 1.34 0 0.68 0 0 Z " fill="#404040" transform="translate(412,601)"/>
<path d="M0 0 C0.55429687 0.42152344 1.10859375 0.84304688 1.6796875 1.27734375 C2.40414063 1.82519531 3.12859375 2.37304688 3.875 2.9375 C4.59429688 3.48277344 5.31359375 4.02804687 6.0546875 4.58984375 C7.94357079 6.03964624 7.94357079 6.03964624 10 7 C10 7.66 10 8.32 10 9 C2.34782609 6.56521739 2.34782609 6.56521739 0 5 C-0.8125 2.9375 -0.8125 2.9375 -1 1 C-0.67 0.67 -0.34 0.34 0 0 Z " fill="#EAEAEA" transform="translate(509,543)"/>
<path d="M0 0 C2.97 1.98 2.97 1.98 6 4 C4.8125 5.5625 4.8125 5.5625 3 7 C0.3125 6.6875 0.3125 6.6875 -2 6 C-2 4.35 -2 2.7 -2 1 C-1.34 0.67 -0.68 0.34 0 0 Z " fill="#404040" transform="translate(525,536)"/>
<path d="M0 0 C1.64826111 2.96687001 2.44271087 5.65626525 3 9 C2.34 9 1.68 9 1 9 C1 10.65 1 12.3 1 14 C0.67 14 0.34 14 0 14 C-0.99 10.37 -1.98 6.74 -3 3 C-2.01 2.01 -1.02 1.02 0 0 Z " fill="#3F3F3F" transform="translate(613,474)"/>
<path d="M0 0 C0.33 0 0.66 0 1 0 C2.20568053 4.67201205 2.09382426 9.21496292 2 14 C1.01 13.67 0.02 13.34 -1 13 C-1.02686553 11.02090602 -1.04633375 9.04171029 -1.0625 7.0625 C-1.07410156 5.96035156 -1.08570313 4.85820312 -1.09765625 3.72265625 C-1 1 -1 1 0 0 Z " fill="#2F2F2F" transform="translate(587,314)"/>
<path d="M0 0 C0 0.33 0 0.66 0 1 C-1.11375 1.226875 -2.2275 1.45375 -3.375 1.6875 C-7.16038373 2.60623658 -7.16038373 2.60623658 -8.4375 5.625 C-8.623125 6.40875 -8.80875 7.1925 -9 8 C-9.66 7.67 -10.32 7.34 -11 7 C-11.33 8.32 -11.66 9.64 -12 11 C-12.66 10.34 -13.32 9.68 -14 9 C-10.6602578 1.48558004 -8.33662612 -0.4809592 0 0 Z " fill="#D0D0D0" transform="translate(493,509)"/>
<path d="M0 0 C3.53790403 3.69172595 3.59115883 7.09390595 4 12 C2.68 12 1.36 12 0 12 C0.03255208 9.98177083 0.06510417 7.96354167 0.09765625 5.9453125 C0.12649242 3.91814596 0.12649242 3.91814596 -1 2 C-0.67 1.34 -0.34 0.68 0 0 Z " fill="#E2E2E2" transform="translate(634,436)"/>
<path d="M0 0 C2.50298434 2.93828597 3.46930939 5.17902761 4 9 C3.01 9.33 2.02 9.66 1 10 C0.01 9.34 -0.98 8.68 -2 8 C-1.47731534 5.23723823 -0.89130413 2.6739124 0 0 Z " fill="#494949" transform="translate(654,422)"/>
<path d="M0 0 C3 4 3 4 3 8 C1.02 8.66 -0.96 9.32 -3 10 C-2.01 6.7 -1.02 3.4 0 0 Z " fill="#DFDFDF" transform="translate(451,600)"/>
<path d="M0 0 C1.88252695 3.76505391 1.00725204 8.38236317 0.9375 12.51953125 C0.99135474 15.51856702 1.29246992 18.09802116 2 21 C0.68 21 -0.64 21 -2 21 C-2 20.34 -2 19.68 -2 19 C-1.34 19 -0.68 19 0 19 C-0.33 18.34 -0.66 17.68 -1 17 C-1.09791023 14.30170926 -1.1390625 11.63515539 -1.125 8.9375 C-1.12886719 8.19177734 -1.13273437 7.44605469 -1.13671875 6.67773438 C-1.12663501 1.12663501 -1.12663501 1.12663501 0 0 Z " fill="#BDBDBD" transform="translate(399,587)"/>
<path d="M0 0 C0.66 0.33 1.32 0.66 2 1 C2.4140625 3.06640625 2.4140625 3.06640625 2.625 5.5625 C2.69976563 6.38878906 2.77453125 7.21507812 2.8515625 8.06640625 C2.90054688 8.70449219 2.94953125 9.34257813 3 10 C1.35 10 -0.3 10 -2 10 C-1.34 6.7 -0.68 3.4 0 0 Z " fill="#E9E9E9" transform="translate(660,634)"/>
<path d="M0 0 C1.485 0.99 1.485 0.99 3 2 C3.58667941 7.28011468 3.29237246 8.61017006 0 13 C0 8.71 0 4.42 0 0 Z " fill="#E0E0E0" transform="translate(517,517)"/>
<path d="M0 0 C0.99 0 1.98 0 3 0 C3.66 0.99 4.32 1.98 5 3 C3.68 4.32 2.36 5.64 1 7 C0.67 6.01 0.34 5.02 0 4 C-0.66 4 -1.32 4 -2 4 C-2.33 4.66 -2.66 5.32 -3 6 C-2.67 4.68 -2.34 3.36 -2 2 C-1.34 2 -0.68 2 0 2 C0 1.34 0 0.68 0 0 Z " fill="#454545" transform="translate(580,513)"/>
<path d="M0 0 C1.32 0.33 2.64 0.66 4 1 C4 1.66 4 2.32 4 3 C5.32 3.66 6.64 4.32 8 5 C7.67 5.66 7.34 6.32 7 7 C3.54074837 5.7508258 0.85306797 4.32472205 -2 2 C-1.34 2 -0.68 2 0 2 C0 1.34 0 0.68 0 0 Z " fill="#494949" transform="translate(502,497)"/>
<path d="M0 0 C3.16115776 1.36983503 3.9927092 1.9890638 6 5 C6 5.99 6 6.98 6 8 C3.64035727 7.59316505 2.14065912 7.10185661 0.1875 5.6875 C-1 4 -1 4 -0.6875 1.8125 C-0.460625 1.214375 -0.23375 0.61625 0 0 Z " fill="#464646" transform="translate(617,464)"/>
<path d="M0 0 C4.75 1.875 4.75 1.875 7 3 C7 3.66 7 4.32 7 5 C6.34 5 5.68 5 5 5 C4.67 5.66 4.34 6.32 4 7 C2.02 5.35 0.04 3.7 -2 2 C-1.34 1.34 -0.68 0.68 0 0 Z " fill="#E1E1E1" transform="translate(520,529)"/>
<path d="M0 0 C4.76132597 4.30055249 4.76132597 4.30055249 5 8 C4.01 9.485 4.01 9.485 3 11 C2.67 9.02 2.34 7.04 2 5 C0.68 4.67 -0.64 4.34 -2 4 C-1.34 2.68 -0.68 1.36 0 0 Z " fill="#484848" transform="translate(510,503)"/>
<path d="M0 0 C4.56454251 0.54339792 7.9728176 1.79463821 12 4 C10.375 5.1875 10.375 5.1875 8 6 C4.75 4.625 4.75 4.625 2 3 C2 2.34 2 1.68 2 1 C1.34 0.67 0.68 0.34 0 0 Z " fill="#EDEDED" transform="translate(614,422)"/>
<path d="M0 0 C0 3.57575896 -1.08840607 5.05295935 -3 8 C-3.99 7.67 -4.98 7.34 -6 7 C-5.67 5.35 -5.34 3.7 -5 2 C-4.360625 1.855625 -3.72125 1.71125 -3.0625 1.5625 C-1.02454854 1.18992819 -1.02454854 1.18992819 0 0 Z " fill="#313131" transform="translate(558,528)"/>
<path d="M0 0 C1.79244141 0.01740234 1.79244141 0.01740234 3.62109375 0.03515625 C5.41740234 0.04869141 5.41740234 0.04869141 7.25 0.0625 C8.17683594 0.07410156 9.10367188 0.08570313 10.05859375 0.09765625 C9.72859375 1.08765625 9.39859375 2.07765625 9.05859375 3.09765625 C1.33834835 4.43385257 1.33834835 4.43385257 -1.94140625 3.09765625 C-2.60140625 2.43765625 -3.26140625 1.77765625 -3.94140625 1.09765625 C-2.94140625 0.09765625 -2.94140625 0.09765625 0 0 Z " fill="#2B2B2B" transform="translate(591.94140625,458.90234375)"/>
<path d="M0 0 C2.62187494 1.04874998 3.79371361 1.64931313 5.25 4.125 C5.4975 4.74375 5.745 5.3625 6 6 C3.69 5.67 1.38 5.34 -1 5 C-0.67 3.35 -0.34 1.7 0 0 Z " fill="#434343" transform="translate(458,312)"/>
<path d="M0 0 C2.1519437 3.22791555 2.20086443 4.28400809 2 8 C3.32 8.33 4.64 8.66 6 9 C6 9.66 6 10.32 6 11 C5.01 11.33 4.02 11.66 3 12 C1.09598862 10.09598862 0.06479561 8.66574314 -0.19921875 5.953125 C-0.1886578 3.96766727 -0.09915043 1.9830086 0 0 Z " fill="#D6D6D6" transform="translate(413,592)"/>
<path d="M0 0 C0.66 0 1.32 0 2 0 C2.625 2.875 2.625 2.875 3 6 C2.34 6.66 1.68 7.32 1 8 C-0.5 6.6875 -0.5 6.6875 -2 5 C-2 4.01 -2 3.02 -2 2 C-1.34 2 -0.68 2 0 2 C0 1.34 0 0.68 0 0 Z " fill="#424242" transform="translate(437,585)"/>
<path d="M0 0 C1.5 1.25 1.5 1.25 3 3 C3 4.32 3 5.64 3 7 C3.66 7 4.32 7 5 7 C4.67 7.66 4.34 8.32 4 9 C3.34 8.67 2.68 8.34 2 8 C1.67 8.99 1.34 9.98 1 11 C1 9.35 1 7.7 1 6 C0.34 6 -0.32 6 -1 6 C-1.33 5.01 -1.66 4.02 -2 3 C-1.34 2.01 -0.68 1.02 0 0 Z " fill="#424242" transform="translate(563,517)"/>
<path d="M0 0 C-2 2 -2 2 -5 4 C-8.1875 3.625 -8.1875 3.625 -11 3 C-11 2.34 -11 1.68 -11 1 C-3.57142857 -1.42857143 -3.57142857 -1.42857143 0 0 Z " fill="#414041" transform="translate(624,419)"/>
<path d="M0 0 C0.66 1.32 1.32 2.64 2 4 C0.35 5.65 -1.3 7.3 -3 9 C-3.625 7.1875 -3.625 7.1875 -4 5 C-3.34 4.01 -2.68 3.02 -2 2 C-1.34 2 -0.68 2 0 2 C0 1.34 0 0.68 0 0 Z " fill="#E9E9E9" transform="translate(451,547)"/>
<path d="M0 0 C-1.20703125 1.55078125 -1.20703125 1.55078125 -3 3 C-5.26171875 2.85546875 -5.26171875 2.85546875 -7.6875 2.1875 C-8.89986328 1.86845703 -8.89986328 1.86845703 -10.13671875 1.54296875 C-11.05904297 1.27419922 -11.05904297 1.27419922 -12 1 C-12 0.67 -12 0.34 -12 0 C-10.56359829 -0.19573608 -9.12580496 -0.38127816 -7.6875 -0.5625 C-6.88699219 -0.66691406 -6.08648438 -0.77132813 -5.26171875 -0.87890625 C-3 -1 -3 -1 0 0 Z " fill="#4C4C4C" transform="translate(611,507)"/>
<path d="M0 0 C5.75 0.75 5.75 0.75 8 3 C8 3.66 8 4.32 8 5 C4.28400809 5.20086443 3.22791555 5.1519437 0 3 C0 2.01 0 1.02 0 0 Z " fill="#404040" transform="translate(603,457)"/>
<path d="M0 0 C0.66 0.33 1.32 0.66 2 1 C0.68 3.31 -0.64 5.62 -2 8 C-3.32 8 -4.64 8 -6 8 C-4.73058503 4.08597051 -3.48832306 2.20927127 0 0 Z " fill="#636363" transform="translate(566,310)"/>
<path d="M0 0 C0.66 0.66 1.32 1.32 2 2 C3.64991582 2.70710678 5.31562256 3.37943989 7 4 C4.39120333 5.30439833 2.90289827 5.33754631 0 5 C-2.8125 3 -2.8125 3 -5 1 C-3 0 -3 0 0 0 Z " fill="#404040" transform="translate(391,666)"/>
<path d="M0 0 C1.65 1.65 3.3 3.3 5 5 C4.01 5.66 3.02 6.32 2 7 C0.68 6.34 -0.64 5.68 -2 5 C-1.34 3.35 -0.68 1.7 0 0 Z " fill="#414041" transform="translate(390,639)"/>
<path d="M0 0 C4.31392226 0.4793247 6.16569547 1.7457985 9 5 C8.01 5.33 7.02 5.66 6 6 C2.8125 3.625 2.8125 3.625 0 1 C0 0.67 0 0.34 0 0 Z " fill="#E8E8E8" transform="translate(527,559)"/>
<path d="M0 0 C6.875 3.75 6.875 3.75 8 6 C6.1875 6.625 6.1875 6.625 4 7 C1 5 1 5 0.3125 2.375 C0.209375 1.59125 0.10625 0.8075 0 0 Z " fill="#E7E6E7" transform="translate(520,552)"/>
<path d="M0 0 C0.6875 1.6875 0.6875 1.6875 1 4 C-0.3125 6.75 -0.3125 6.75 -2 9 C-2.66 9 -3.32 9 -4 9 C-4.33 8.01 -4.66 7.02 -5 6 C-3.59554165 3.7363436 -1.8032087 1.9791315 0 0 Z " fill="#474747" transform="translate(462,539)"/>
<path d="M0 0 C1.65 0 3.3 0 5 0 C6.125 2.3125 6.125 2.3125 7 5 C6.01 6.485 6.01 6.485 5 8 C1.125 2.25 1.125 2.25 0 0 Z " fill="#E4E4E4" transform="translate(648,414)"/>
<path d="M0 0 C-0.125 1.8125 -0.125 1.8125 -1 4 C-4.0625 5.75 -4.0625 5.75 -7 7 C-6.22006468 2.47637516 -4.81844319 0 0 0 Z " fill="#444444" transform="translate(639,664)"/>
<path d="M0 0 C0.66 0.33 1.32 0.66 2 1 C1.67 2.65 1.34 4.3 1 6 C0.34 6 -0.32 6 -1 6 C-1 6.66 -1 7.32 -1 8 C-1.66 8 -2.32 8 -3 8 C-3.33 8.66 -3.66 9.32 -4 10 C-4 8.68 -4 7.36 -4 6 C-3.34 6 -2.68 6 -2 6 C-2 5.01 -2 4.02 -2 3 C-1.34 2.67 -0.68 2.34 0 2 C0 1.34 0 0.68 0 0 Z " fill="#2E2E2E" transform="translate(408,602)"/>
<path d="M0 0 C2 2 2 2 2.265625 3.875 C2.26046875 4.57625 2.2553125 5.2775 2.25 6 C2.25515625 6.70125 2.2603125 7.4025 2.265625 8.125 C2 10 2 10 0 12 C-1.1671568 8.49852959 -1.13357453 5.67329964 -1 2 C-0.67 1.34 -0.34 0.68 0 0 Z " fill="#3D3D3D" transform="translate(450,590)"/>
<path d="M0 0 C1.6875 1.5625 1.6875 1.5625 3 3 C-2.41538462 3.36923077 -2.41538462 3.36923077 -5.375 1.5 C-5.91125 1.005 -6.4475 0.51 -7 0 C-3.98968256 -0.93423645 -3.13349732 -1.04449911 0 0 Z " fill="#424242" transform="translate(541,562)"/>
<path d="M0 0 C0.103125 0.639375 0.20625 1.27875 0.3125 1.9375 C0.539375 2.618125 0.76625 3.29875 1 4 C1.99 4.33 2.98 4.66 4 5 C2.3125 5.8125 2.3125 5.8125 0 6 C-2.75 3.5625 -2.75 3.5625 -5 1 C-3 0 -3 0 0 0 Z " fill="#3E3E3E" transform="translate(533,556)"/>
<path d="M0 0 C2.475 0.99 2.475 0.99 5 2 C5 2.66 5 3.32 5 4 C5.66 4 6.32 4 7 4 C6.67 4.66 6.34 5.32 6 6 C3.525 5.01 3.525 5.01 1 4 C1 3.34 1 2.68 1 2 C0.34 1.67 -0.32 1.34 -1 1 C-0.67 0.67 -0.34 0.34 0 0 Z M1 5 C1.66 5.66 2.32 6.32 3 7 C2.34 7 1.68 7 1 7 C1 6.34 1 5.68 1 5 Z " fill="#E1E1E1" transform="translate(603,472)"/>
<path d="M0 0 C-0.639375 0.268125 -1.27875 0.53625 -1.9375 0.8125 C-4.33131686 1.88667752 -4.33131686 1.88667752 -5 5 C-7 4 -7 4 -9 1 C-2.25 -1.125 -2.25 -1.125 0 0 Z " fill="#D5D5D5" transform="translate(630,673)"/>
<path d="M0 0 C5.75 1.75 5.75 1.75 8 4 C7.67 4.99 7.34 5.98 7 7 C5.83040013 6.02433888 4.66438823 5.044375 3.5 4.0625 C2.8503125 3.51722656 2.200625 2.97195313 1.53125 2.41015625 C1.0259375 1.94480469 0.520625 1.47945312 0 1 C0 0.67 0 0.34 0 0 Z " fill="#E2E2E2" transform="translate(392,641)"/>
<path d="M0 0 C0.66 0 1.32 0 2 0 C1.71125 0.556875 1.4225 1.11375 1.125 1.6875 C-0.0413253 4.08494645 -1.0339881 6.51596939 -2 9 C-3.32 8.34 -4.64 7.68 -6 7 C-5.04882866 5.8274869 -4.08882991 4.66212985 -3.125 3.5 C-2.59132813 2.8503125 -2.05765625 2.200625 -1.5078125 1.53125 C-0.76144531 0.77328125 -0.76144531 0.77328125 0 0 Z " fill="#DDDDDD" transform="translate(464,560)"/>
<path d="M0 0 C0.33 0.66 0.66 1.32 1 2 C0.67 2.66 0.34 3.32 0 4 C0.99 3.67 1.98 3.34 3 3 C3 3.66 3 4.32 3 5 C1.02 5.99 -0.96 6.98 -3 8 C-3 3.73173127 -2.62386487 3.06117568 0 0 Z " fill="#515151" transform="translate(558,523)"/>
<path d="M0 0 C0.33 0.66 0.66 1.32 1 2 C2.65 1.34 4.3 0.68 6 0 C6.33 0.66 6.66 1.32 7 2 C6.01 2.495 6.01 2.495 5 3 C5.66 3.66 6.32 4.32 7 5 C6.01 5.495 6.01 5.495 5 6 C2.375 5.0625 2.375 5.0625 0 4 C0 2.68 0 1.36 0 0 Z " fill="#313131" transform="translate(566,520)"/>
<path d="M0 0 C-1.423125 0.928125 -1.423125 0.928125 -2.875 1.875 C-5.94445109 3.81970969 -5.94445109 3.81970969 -8 6 C-8 4.35 -8 2.7 -8 1 C-4.93251126 -0.86240388 -3.40254489 -1.2151946 0 0 Z " fill="#DEDEDE" transform="translate(587,461)"/>
<path d="M0 0 C0.66 0.33 1.32 0.66 2 1 C0.515 3.475 0.515 3.475 -1 6 C-2.32 5.67 -3.64 5.34 -5 5 C-3.35 3.35 -1.7 1.7 0 0 Z " fill="#D8D8D8" transform="translate(419,585)"/>
<path d="M0 0 C1.26026798 2.52053595 0.91874445 3.8542098 0.5625 6.625 C0.46066406 7.44226563 0.35882813 8.25953125 0.25390625 9.1015625 C0.17011719 9.72804688 0.08632813 10.35453125 0 11 C-0.28875 10.38125 -0.5775 9.7625 -0.875 9.125 C-1.93720042 6.86674235 -1.93720042 6.86674235 -4 5 C-2.68 3.35 -1.36 1.7 0 0 Z " fill="#4A4A4A" transform="translate(406,576)"/>
<path d="M0 0 C0.99 0 1.98 0 3 0 C3 1.65 3 3.3 3 5 C2.01 5.495 2.01 5.495 1 6 C0.34 5.67 -0.32 5.34 -1 5 C-0.67 3.35 -0.34 1.7 0 0 Z " fill="#414141" transform="translate(572,506)"/>
<path d="M0 0 C2 3 2 3 1.625 5.1875 C1.41875 5.785625 1.2125 6.38375 1 7 C-0.32 7 -1.64 7 -3 7 C-2.25 2.25 -2.25 2.25 0 0 Z " fill="#434343" transform="translate(588,473)"/>
<path d="M0 0 C2.31 1.98 4.62 3.96 7 6 C6.01 6.66 5.02 7.32 4 8 C0 2.25 0 2.25 0 0 Z " fill="#DADADA" transform="translate(373,656)"/>
<path d="M0 0 C3.465 1.485 3.465 1.485 7 3 C7 3.66 7 4.32 7 5 C7.66 5.33 8.32 5.66 9 6 C8.01 6.495 8.01 6.495 7 7 C5.82780457 6.21654285 4.66236332 5.42297164 3.5 4.625 C2.8503125 4.18414063 2.200625 3.74328125 1.53125 3.2890625 C1.0259375 2.86367188 0.520625 2.43828125 0 2 C0 1.34 0 0.68 0 0 Z " fill="#474747" transform="translate(520,550)"/>
<path d="M0 0 C0.66 0 1.32 0 2 0 C2 0.99 2 1.98 2 3 C3.65 3.33 5.3 3.66 7 4 C7 4.66 7 5.32 7 6 C3.31245243 5.50168276 1.39509338 4.89932357 -1 2 C-0.67 1.34 -0.34 0.68 0 0 Z " fill="#E3E3E3" transform="translate(483,527)"/>
<path d="M0 0 C0.33 1.32 0.66 2.64 1 4 C-1.6666419 5.33332095 -3.16680303 4.67102033 -6 4 C-2.25 0 -2.25 0 0 0 Z " fill="#DDDDDD" transform="translate(644,664)"/>
<path d="M0 0 C2 3 2 3 2 5 C1.34 5 0.68 5 0 5 C-1.62514468 6.45833358 -1.62514468 6.45833358 -3 8 C-3.66 7.67 -4.32 7.34 -5 7 C-3.35 4.69 -1.7 2.38 0 0 Z " fill="#E3E3E3" transform="translate(553,554)"/>
<path d="M0 0 C0 0.99 0 1.98 0 3 C-0.99 3.33 -1.98 3.66 -3 4 C-3 4.99 -3 5.98 -3 7 C-4.65 6.67 -6.3 6.34 -8 6 C-5.33333333 4 -2.66666667 2 0 0 Z " fill="#E4E4E4" transform="translate(618,503)"/>
<path d="M0 0 C2.09350689 3.4019487 2.17942163 6.05272412 2 10 C1.34 10 0.68 10 0 10 C-1.2380014 6.42355152 -0.74926071 3.66305234 0 0 Z " fill="#454545" transform="translate(364,434)"/>
<path d="M0 0 C2.475 0.99 2.475 0.99 5 2 C5 2.66 5 3.32 5 4 C3.68 4.33 2.36 4.66 1 5 C1 4.34 1 3.68 1 3 C0.34 3 -0.32 3 -1 3 C-0.67 2.01 -0.34 1.02 0 0 Z " fill="#F7F7F7" transform="translate(617,425)"/>
<path d="M0 0 C1.32 0.66 2.64 1.32 4 2 C4 2.66 4 3.32 4 4 C3.34 4 2.68 4 2 4 C1.67 4.66 1.34 5.32 1 6 C0.34 5.67 -0.32 5.34 -1 5 C-0.67 3.35 -0.34 1.7 0 0 Z " fill="#444444" transform="translate(630,402)"/>
<path d="M0 0 C-0.66 1.32 -1.32 2.64 -2 4 C-3.65 3.67 -5.3 3.34 -7 3 C-6.67 2.01 -6.34 1.02 -6 0 C-3 -1 -3 -1 0 0 Z " fill="#2F2F2F" transform="translate(631,668)"/>
<path d="M0 0 C0.33 0.66 0.66 1.32 1 2 C1.66 2.33 2.32 2.66 3 3 C2.01 3.33 1.02 3.66 0 4 C-0.33 4.99 -0.66 5.98 -1 7 C-1.66 6.67 -2.32 6.34 -3 6 C-2 4 -1 2 0 0 Z " fill="#EAEAEA" transform="translate(649,657)"/>
<path d="M0 0 C0.66 0.99 1.32 1.98 2 3 C0.68 4.32 -0.64 5.64 -2 7 C-2.33 6.01 -2.66 5.02 -3 4 C-1.5625 1.8125 -1.5625 1.8125 0 0 Z " fill="#434343" transform="translate(652,649)"/>
<path d="M0 0 C0.66 0.33 1.32 0.66 2 1 C1.34 1.66 0.68 2.32 0 3 C0.66 3.66 1.32 4.32 2 5 C1.01 5 0.02 5 -1 5 C-1.33 5.66 -1.66 6.32 -2 7 C-2.33 5.02 -2.66 3.04 -3 1 C-2.01 0.67 -1.02 0.34 0 0 Z " fill="#E5E5E5" transform="translate(451,579)"/>
<path d="M0 0 C-0.99 0.33 -1.98 0.66 -3 1 C-3 1.66 -3 2.32 -3 3 C-4.98 3 -6.96 3 -9 3 C-7 0 -7 0 -4.5 -0.75 C-2 -1 -2 -1 0 0 Z " fill="#E4E4E4" transform="translate(546,565)"/>
<path d="M0 0 C0.185625 0.9590625 0.185625 0.9590625 0.375 1.9375 C0.684375 2.9584375 0.684375 2.9584375 1 4 C1.66 4.33 2.32 4.66 3 5 C1.35 5.33 -0.3 5.66 -2 6 C-1.125 1.125 -1.125 1.125 0 0 Z " fill="#303030" transform="translate(457,546)"/>
</svg>
